<svg xmlns="http://www.w3.org/2000/svg" xmlns:xlink="http://www.w3.org/1999/xlink" width="500" zoomAndPan="magnify" viewBox="0 0 375 374.999991" height="500" preserveAspectRatio="xMidYMid meet" version="1.0"><defs><g/></defs><path fill="#0a092f" d="M 126.019531 199.898438 C 118.714844 207.386719 107.339844 196.296875 114.644531 188.789062 C 121.949219 181.300781 133.324219 192.410156 126.019531 199.898438 Z M 291.984375 189.707031 C 288.832031 204.5625 282.488281 218.886719 272.953125 231.574219 C 279.339844 238.960938 269.90625 249.539062 261.84375 244.175781 C 253.597656 252.175781 244.371094 258.601562 234.570312 263.429688 C 237.882812 277.121094 218.507812 283.871094 212.429688 271.351562 C 204.878906 273.191406 197.082031 274.234375 189.164062 274.378906 C 185.074219 284.300781 170.382812 283.011719 167.988281 272.660156 C 157.410156 270.714844 146.707031 267.03125 137.355469 262.140625 C 128.230469 269.691406 114.910156 260.851562 118.53125 249.558594 C 106.890625 239.820312 97.539062 227.828125 90.929688 214.324219 C 78.960938 216.535156 72.78125 200.125 83.398438 193.964844 C 80.496094 182.710938 79.390625 170.882812 80.351562 158.914062 C 67.929688 155.089844 71.0625 135.855469 84.527344 136.632812 C 90.890625 115.3125 103.351562 97.40625 119.453125 84.3125 C 112.457031 70.644531 130.195312 57.058594 141.488281 68.066406 C 142.042969 68.597656 142.511719 69.171875 142.964844 69.765625 C 160.007812 62.03125 179.140625 58.714844 198.578125 60.84375 C 202.199219 51.347656 216.480469 54.152344 216.277344 64.28125 C 221.414062 65.710938 226.464844 67.554688 231.378906 69.785156 C 236.246094 64.609375 244.636719 69.3125 243.0625 75.964844 C 245.84375 77.660156 248.585938 79.542969 251.265625 81.550781 C 257.628906 86.296875 263.542969 91.839844 268.679688 97.835938 C 274.242188 95.710938 279.523438 102.398438 275.921875 107.3125 C 279.625 112.773438 282.777344 118.503906 285.375 124.4375 C 294.664062 123.066406 299.226562 135.855469 290.941406 140.558594 C 293.210938 149.398438 294.335938 158.484375 294.316406 167.570312 C 307.0625 170.496094 305.058594 189.523438 291.984375 189.707031 Z M 265.242188 106.207031 C 261.003906 106.738281 256.769531 107.472656 252.574219 108.355469 C 252.757812 110.296875 252.535156 112.28125 251.898438 114.144531 C 261.414062 117.847656 270.664062 122.535156 279.460938 128.160156 L 281.691406 125.929688 C 280.257812 122.675781 278.664062 119.484375 276.925781 116.394531 C 275.613281 114.082031 274.203125 111.8125 272.710938 109.601562 C 269.84375 110.460938 266.507812 109.03125 265.242188 106.207031 Z M 178.28125 153.984375 C 190.761719 158.484375 202.832031 164.625 214.167969 172.417969 C 214.640625 172.007812 215.152344 171.660156 215.664062 171.375 C 211.34375 159.46875 205.535156 147.96875 198.210938 137.226562 C 195.957031 138.207031 193.296875 137.980469 191.210938 136.53125 C 186.300781 140.273438 181.574219 144.347656 177.050781 148.746094 C 178.035156 150.339844 178.445312 152.183594 178.28125 153.984375 Z M 225.300781 106.390625 C 225.523438 105.429688 225.871094 104.464844 226.324219 103.566406 C 214.3125 95.914062 201.484375 90.082031 188.246094 86.070312 C 185.359375 89.9375 182.679688 93.910156 180.203125 97.9375 C 182.105469 99.269531 183.578125 101.214844 184.273438 103.628906 C 198.003906 102.789062 211.796875 103.710938 225.300781 106.390625 Z M 224.910156 110.238281 C 211.652344 107.554688 198.128906 106.636719 184.664062 107.472656 C 184.519531 109.273438 183.925781 111.035156 182.902344 112.609375 C 186.464844 116.210938 189.820312 119.933594 192.972656 123.78125 C 195.46875 122.921875 198.414062 123.453125 200.398438 125.460938 C 208.359375 120.445312 216.6875 116.191406 225.238281 112.710938 C 225.054688 111.914062 224.953125 111.074219 224.910156 110.238281 Z M 163.671875 110.238281 C 138.769531 115.230469 114.890625 126.402344 94.46875 143.671875 C 94.960938 144.835938 95.246094 146.085938 95.308594 147.332031 C 117.488281 143.199219 140.304688 143.773438 162.359375 149.195312 C 162.730469 148.5 163.199219 147.84375 163.773438 147.273438 C 166.617188 144.367188 171.058594 143.9375 174.351562 146.023438 C 178.953125 141.542969 183.761719 137.390625 188.757812 133.582031 C 187.652344 131.128906 187.976562 128.160156 189.800781 126.011719 C 186.8125 122.371094 183.621094 118.832031 180.242188 115.414062 C 174.515625 119.566406 166.003906 116.886719 163.671875 110.238281 Z M 219.347656 170.210938 C 220.695312 170.066406 222.046875 170.230469 223.355469 170.660156 C 230.332031 155.558594 234.773438 139.578125 236.617188 123.371094 C 232.542969 122.738281 228.636719 120.039062 226.609375 116.3125 C 218.242188 119.710938 210.117188 123.863281 202.34375 128.796875 C 202.855469 130.820312 202.484375 133.011719 201.238281 134.789062 C 208.847656 145.941406 214.886719 157.851562 219.347656 170.210938 Z M 226.691406 172.625 C 227.613281 173.460938 228.328125 174.445312 228.839844 175.488281 C 235.917969 172.417969 242.792969 168.816406 249.425781 164.664062 C 248.625 150.628906 245.945312 136.714844 241.363281 123.289062 C 241.074219 123.351562 240.789062 123.394531 240.503906 123.433594 C 238.601562 140.316406 233.996094 156.949219 226.691406 172.625 Z M 228.839844 183.816406 C 234.855469 189.074219 240.378906 194.703125 245.414062 200.613281 C 246.027344 200.347656 246.683594 200.207031 247.359375 200.164062 C 249.15625 189.871094 249.894531 179.457031 249.609375 169.082031 C 243.203125 172.972656 236.59375 176.367188 229.78125 179.273438 C 229.84375 180.828125 229.535156 182.382812 228.839844 183.816406 Z M 253.128906 162.289062 C 259.59375 157.972656 265.792969 153.144531 271.644531 147.761719 C 264.914062 137.796875 256.914062 128.425781 247.890625 120.140625 C 246.988281 120.917969 246.027344 121.570312 245.003906 122.082031 C 249.445312 135.136719 252.164062 148.644531 253.128906 162.289062 Z M 274.488281 145.082031 C 276.535156 143.117188 278.539062 141.09375 280.484375 138.984375 C 278.703125 137.121094 277.679688 134.523438 278.070312 131.804688 C 269.515625 126.277344 260.554688 121.675781 251.304688 118.03125 C 260.085938 126.238281 267.878906 135.382812 274.488281 145.082031 Z M 239.480469 80.507812 C 240.296875 85.664062 240.871094 90.839844 241.179688 96.015625 C 245.761719 96.8125 249.957031 100.210938 251.675781 104.609375 C 256.03125 103.6875 260.410156 102.933594 264.8125 102.378906 C 264.953125 101.664062 265.242188 100.945312 265.648438 100.3125 C 258.671875 92.085938 250.367188 84.988281 241.15625 79.320312 C 240.644531 79.808594 240.09375 80.21875 239.480469 80.507812 Z M 214.597656 69.394531 C 222.066406 77.96875 228.449219 87.136719 233.769531 96.753906 C 234.917969 96.300781 236.105469 96.015625 237.332031 95.894531 C 237.023438 90.960938 236.472656 86.070312 235.695312 81.179688 C 231.867188 80.773438 229.066406 77.007812 229.699219 73.242188 C 225.136719 71.175781 220.367188 69.4375 215.417969 68.023438 C 215.171875 68.496094 214.90625 68.964844 214.597656 69.394531 Z M 190.761719 82.816406 C 203.878906 86.929688 216.582031 92.78125 228.511719 100.375 L 230.4375 98.613281 C 225.257812 89.242188 219.039062 80.320312 211.796875 71.996094 C 208.253906 74.0625 204.019531 73.324219 201.195312 70.910156 Z M 144.824219 73.222656 C 145.113281 74 145.316406 74.796875 145.460938 75.617188 C 159.375 75.800781 173.289062 77.804688 186.792969 81.652344 L 198.800781 67.820312 C 198.351562 66.859375 198.085938 65.816406 198.003906 64.691406 C 179.894531 62.808594 161.605469 65.671875 144.824219 73.222656 Z M 144.335938 83.945312 C 152.128906 88.078125 159.660156 92.886719 166.820312 98.410156 C 169.6875 95.953125 173.410156 95.382812 176.703125 96.300781 C 179.058594 92.433594 181.574219 88.648438 184.296875 84.945312 C 171.628906 81.46875 158.617188 79.648438 145.582031 79.460938 C 145.4375 80.996094 145.007812 82.511719 144.335938 83.945312 Z M 88.414062 137.550781 L 92.382812 140.398438 C 113.273438 122.839844 137.664062 111.503906 163.054688 106.429688 C 163.097656 104.691406 163.546875 102.953125 164.40625 101.398438 C 157.347656 95.953125 149.921875 91.207031 142.207031 87.175781 C 136.84375 93.253906 127.371094 93.4375 121.765625 87.566406 C 105.988281 100.539062 94.039062 118.808594 88.414062 137.550781 Z M 163.035156 158.238281 C 161.871094 156.664062 161.316406 154.78125 161.359375 152.898438 C 139.484375 147.539062 116.8125 147.066406 94.839844 151.324219 C 93.386719 156.214844 88.863281 159.222656 84.175781 159.40625 C 83.296875 170.761719 84.320312 181.972656 87.042969 192.65625 C 98.890625 190.609375 104.988281 206.734375 94.550781 212.953125 C 100.773438 225.578125 109.507812 236.832031 120.332031 246.039062 C 121.96875 243.808594 124.40625 242.132812 127.414062 241.515625 C 130.808594 211.703125 142.675781 182.648438 163.035156 158.238281 Z M 140.917969 249.109375 C 170.648438 237.117188 197.246094 214.875 214.476562 187.128906 C 210.894531 184.328125 209.871094 179.375 211.796875 175.46875 C 200.808594 167.9375 189.125 162.003906 177.03125 157.644531 C 174.71875 161.390625 169.769531 162.679688 165.960938 160.734375 C 146.238281 184.390625 134.695312 212.503906 131.28125 241.375 C 135.554688 241.90625 139.464844 245.015625 140.917969 249.109375 Z M 220.921875 189.117188 C 219.917969 189.175781 218.917969 189.09375 217.953125 188.828125 C 200.152344 217.660156 172.53125 240.679688 141.613281 252.976562 C 141.632812 255.289062 141.019531 257.375 139.933594 259.132812 C 148.46875 263.511719 158.167969 266.847656 167.761719 268.691406 C 169.542969 254.796875 190.453125 256.496094 189.964844 270.511719 C 197.226562 270.304688 204.386719 269.34375 211.34375 267.667969 C 210.671875 261.507812 215.007812 255.183594 221.902344 254.488281 C 226.222656 232.882812 225.871094 210.578125 220.921875 189.117188 Z M 226.488281 254.941406 C 234.875 241.433594 240.972656 226.929688 244.820312 211.972656 C 241.667969 210.273438 240.605469 206.097656 242.46875 203.109375 C 237.597656 197.382812 232.277344 191.960938 226.464844 186.886719 C 225.894531 187.375 225.28125 187.785156 224.625 188.132812 C 229.699219 210.007812 230.109375 232.757812 225.792969 254.777344 C 226.015625 254.796875 226.261719 254.859375 226.488281 254.941406 Z M 261.128906 230.589844 C 257.792969 224.328125 254.007812 218.230469 249.773438 212.402344 C 249.382812 212.523438 248.996094 212.625 248.605469 212.667969 C 244.71875 227.972656 238.496094 242.828125 229.964844 256.660156 L 232.953125 259.808594 C 242.570312 255.042969 251.410156 248.800781 259.144531 241.292969 C 257.179688 237.8125 257.914062 233.230469 261.128906 230.589844 Z M 288.035156 189.054688 C 280.382812 186.3125 278.070312 175.917969 284.25 170.25 C 281.28125 163.703125 277.785156 157.257812 273.792969 151.035156 C 267.347656 156.890625 260.515625 162.125 253.375 166.75 C 253.863281 178.210938 253.105469 189.730469 251.101562 201.105469 C 254.191406 203.007812 255.011719 207.265625 252.882812 210.148438 C 257.242188 216.164062 261.148438 222.425781 264.566406 228.890625 C 266.265625 228.484375 268.066406 228.625 269.703125 229.28125 C 278.316406 217.800781 284.863281 203.683594 288.035156 189.054688 Z M 290.367188 167.386719 C 290.367188 158.609375 289.261719 149.992188 287.132812 141.6875 C 285.949219 141.746094 284.78125 141.5625 283.738281 141.152344 C 281.445312 143.648438 279.074219 146.042969 276.660156 148.355469 C 280.792969 154.761719 284.433594 161.390625 287.523438 168.164062 C 288.445312 167.773438 289.40625 167.507812 290.367188 167.386719 Z M 270.96875 196.523438 C 265.671875 195.050781 263.441406 203.132812 268.738281 204.605469 C 274.019531 206.078125 276.269531 197.996094 270.96875 196.523438 Z M 191.109375 191.652344 C 197.941406 192.738281 199.601562 182.320312 192.765625 181.238281 C 185.933594 180.152344 184.273438 190.566406 191.109375 191.652344 Z M 192.050781 235.5625 C 183.394531 233.167969 179.734375 246.367188 188.40625 248.761719 C 197.0625 251.15625 200.707031 237.957031 192.050781 235.5625 Z M 151.414062 123.289062 C 144.128906 121.265625 141.039062 132.394531 148.34375 134.421875 C 155.628906 136.425781 158.699219 125.296875 151.414062 123.289062 Z M 151.414062 123.289062 " fill-opacity="1" fill-rule="nonzero"/><g fill="#0a092f" fill-opacity="1"><g transform="translate(126.663885, 333.350755)"><g><path d="M 3.910156 0 L 11.285156 0 L 11.285156 -34.203125 L 3.910156 -34.203125 Z M 3.910156 0 "/></g></g></g><g fill="#0a092f" fill-opacity="1"><g transform="translate(141.908011, 333.350755)"><g><path d="M 18.421875 -26.972656 C 14.855469 -26.972656 11.679688 -25.457031 9.675781 -23.113281 L 8.304688 -26.386719 L 3.421875 -26.386719 L 3.421875 0 L 10.554688 0 L 10.554688 -13.828125 C 10.554688 -18.078125 12.800781 -20.71875 16.464844 -20.71875 C 19.542969 -20.71875 21.058594 -18.8125 21.058594 -14.804688 L 21.058594 0 L 28.191406 0 L 28.191406 -15.976562 C 28.191406 -22.671875 24.429688 -26.972656 18.421875 -26.972656 Z M 18.421875 -26.972656 "/></g></g></g><g fill="#0a092f" fill-opacity="1"><g transform="translate(173.226865, 333.350755)"><g><path d="M 18.421875 -26.972656 C 14.855469 -26.972656 11.679688 -25.457031 9.675781 -23.113281 L 8.304688 -26.386719 L 3.421875 -26.386719 L 3.421875 0 L 10.554688 0 L 10.554688 -13.828125 C 10.554688 -18.078125 12.800781 -20.71875 16.464844 -20.71875 C 19.542969 -20.71875 21.058594 -18.8125 21.058594 -14.804688 L 21.058594 0 L 28.191406 0 L 28.191406 -15.976562 C 28.191406 -22.671875 24.429688 -26.972656 18.421875 -26.972656 Z M 18.421875 -26.972656 "/></g></g></g><g fill="#0a092f" fill-opacity="1"><g transform="translate(204.54572, 333.350755)"><g><path d="M 3.910156 0 L 11.285156 0 L 11.285156 -34.203125 L 3.910156 -34.203125 Z M 3.910156 0 "/></g></g></g><g fill="#0a092f" fill-opacity="1"><g transform="translate(219.789845, 333.350755)"><g><path d="M 27.460938 -34.203125 L 1.027344 -34.203125 L 1.027344 -27.3125 L 10.554688 -27.3125 L 10.554688 0 L 17.933594 0 L 17.933594 -27.3125 L 27.460938 -27.3125 Z M 27.460938 -34.203125 "/></g></g></g></svg>